<?xml version="1.0" encoding="UTF-8"?>
<svg width="396" height="44" xmlns="http://www.w3.org/2000/svg" preserveAspectRatio="xMidYMid meet" data-background-color="#ffffff">
    <g id="Layer_1">
        <title>Layer 1</title>
        <g transform="matrix(1 0 0 1 122.24 181.907)" id="tight-bounds">
            <svg y="-178" x="-122" id="svg_18" width="395.52" height="36.18537" viewBox="0 0 395.52 36.185366496185026">
                <svg id="svg_16" width="395.52" height="36.18537" viewBox="0 0 442.1346254623944 40.45004920866263">
                    <g id="svg_9" transform="matrix(1,0,0,1,46.614625462394415,5.590419246638614)">
                        <svg id="svg_8" width="395.52" height="29.26921" viewBox="0 0 395.52 29.269210715385398">
                            <svg id="svg_6" width="395.52" height="29.26921" viewBox="0 0 395.52 29.269210715385398">
                                <svg id="svg_4" width="395.52" height="29.26921" viewBox="0 0 395.52 29.269210715385398">
                                    <svg id="svg_2" data-palette-color="#2b2b2b" height="29.26921" viewBox="2.450000047683716 -35.650001525878906 487.1099853515625 36.05000305175781" width="395.52">
                                        <path id="svg_1" data-fill-palette-color="primary" class="undefined-text-0" fill="#2b2b2b" d="m15.5,0.4q-4.15,0 -7.35,-1.13q-3.2,-1.12 -5.7,-3.47l0,0l1.3,-2.45q2.65,2.35 5.33,3.32q2.67,0.98 6.42,0.98l0,0q4.45,0 6.93,-1.82q2.47,-1.83 2.47,-5.13l0,0q0,-1.95 -1.2,-3.18q-1.2,-1.22 -3.05,-1.9q-1.85,-0.67 -4.95,-1.37l0,0q-4.1,-0.9 -6.62,-1.85q-2.53,-0.95 -4.28,-2.88q-1.75,-1.92 -1.75,-5.17l0,0q0,-3 1.55,-5.25q1.55,-2.25 4.37,-3.5q2.83,-1.25 6.63,-1.25l0,0q3.6,0 6.68,1.17q3.07,1.18 5.32,3.43l0,0l-1.3,2.45q-2.5,-2.25 -5.05,-3.28q-2.55,-1.02 -5.65,-1.02l0,0q-4.45,0 -6.95,1.9q-2.5,1.9 -2.5,5.3l0,0q0,2.95 2.18,4.37q2.17,1.43 6.37,2.43l0,0l1.3,0.3q4.05,1 6.4,1.85q2.35,0.85 3.98,2.62q1.62,1.78 1.62,4.78l0,0q0,2.9 -1.55,5.1q-1.55,2.2 -4.37,3.42q-2.83,1.23 -6.58,1.23l0,0zm41.15,-0.4l-21.75,0l0,-35.25l21.75,0l0,2.65l-18.7,0l0,13.35l17.7,0l0,2.7l-17.7,0l0,13.9l18.7,0l0,2.65zm31.94,-5.25l0,-30l2.91,0l0,35.25l-2.41,0l-22.34,-30.05l0,30.05l-2.91,0l0,-35.25l2.46,0l22.29,30zm23.75,5.25l-3.05,0l0,-32.55l-12.65,0l0,-2.7l28.3,0l0,2.7l-12.6,0l0,32.55zm20.85,0l-3.1,0l0,-35.25l3.1,0l0,35.25zm25.65,-8.55l13.75,-26.7l2.6,0l0,35.25l-2.9,0l0,-29.1l-12.35,23.55l-2.3,0l-12.45,-23.35l0.05,28.9l-2.95,0l0,-35.25l2.6,0l13.95,26.7zm47.2,8.55l-21.75,0l0,-35.25l21.75,0l0,2.65l-18.7,0l0,13.35l17.7,0l0,2.7l-17.7,0l0,13.9l18.7,0l0,2.65zm31.94,-5.25l0,-30l2.9,0l0,35.25l-2.4,0l-22.35,-30.05l0,30.05l-2.9,0l0,-35.25l2.45,0l22.3,30zm23.75,5.25l-3.05,0l0,-32.55l-12.65,0l0,-2.7l28.3,0l0,2.7l-12.6,0l0,32.55zm49.65,-18.05q3.05,0.75 4.72,2.97q1.68,2.23 1.68,5.53l0,0q0,4.65 -3.03,7.1q-3.02,2.45 -8.57,2.45l0,0l-14.1,0l0,-35.25l13.6,0q5.4,0 8.35,2.4q2.95,2.4 2.95,6.85l0,0q0,2.85 -1.48,4.9q-1.47,2.05 -4.12,3.05l0,0zm-16.25,-14.55l0,13.35l10.1,0q4.25,0 6.45,-1.75q2.2,-1.75 2.2,-5.05l0,0q0,-6.55 -8.65,-6.55l0,0l-10.1,0zm10.85,29.95q4.45,0 6.57,-1.68q2.13,-1.67 2.13,-5.12l0,0q0,-7.1 -8.7,-7.1l0,0l-10.85,0l0,13.9l10.85,0zm49.29,2.65l-3.15,0l-4.05,-9.4l-19,0l-4.05,9.4l-3.15,0l15.3,-35.25l2.8,0l15.3,35.25zm-16.7,-31.6l-8.35,19.5l16.7,0l-8.35,-19.5zm22.55,31.6l0,-35.25l11.35,0q8.4,0 12.95,4.57q4.55,4.58 4.55,13.03l0,0q0,8.45 -4.57,13.05q-4.58,4.6 -12.93,4.6l0,0l-11.35,0zm3.1,-2.7l8.1,0q7.15,0 10.78,-3.75q3.62,-3.75 3.62,-11.2l0,0q0,-14.9 -14.4,-14.9l0,0l-8.1,0l0,29.85zm48.6,-15.35l12.1,0l0,16.05q-1.95,1.05 -5.3,1.72q-3.35,0.68 -6.75,0.68l0,0q-5.15,0 -8.88,-2.15q-3.72,-2.15 -5.7,-6.2q-1.97,-4.05 -1.97,-9.7l0,0q0,-5.6 1.95,-9.68q1.95,-4.07 5.62,-6.19q3.68,-2.13 8.68,-2.13l0,0q7.4,0 12,4.6l0,0l-1.3,2.45q-2.5,-2.3 -5.05,-3.3q-2.55,-1 -5.7,-1l0,0q-6.25,0 -9.63,3.97q-3.37,3.98 -3.37,11.28l0,0q0,7.45 3.42,11.4q3.43,3.95 9.93,3.95l0,0q2.5,0 4.9,-0.43q2.4,-0.42 4.35,-1.17l0,0l0,-11.55l-9.3,0l0,-2.6zm42.55,18.05l-21.75,0l0,-35.25l21.75,0l0,2.65l-18.7,0l0,13.35l17.7,0l0,2.7l-17.7,0l0,13.9l18.7,0l0,2.65zm27.89,-11.8l6.3,11.8l-3.4,0l-5.95,-11.3q-1.2,-2.3 -2.8,-3.15q-1.6,-0.85 -4.4,-0.85l0,0l-7.35,0l0,15.3l-3.1,0l0,-35.25l14.1,0q5.55,0 8.55,2.52q3,2.53 3,7.38l0,0q0,4.1 -2.37,6.57q-2.38,2.48 -6.78,3.03l0,0q1.3,0.4 2.33,1.37q1.02,0.98 1.87,2.58l0,0zm-17.65,-6.15l10.85,0q8.7,0 8.7,-7.45l0,0q0,-3.65 -2.15,-5.43q-2.15,-1.77 -6.55,-1.77l0,0l-10.85,0l0,14.65z"/>
                                    </svg>
                                </svg>
                            </svg>
                        </svg>
                    </g>
                    <svg id="svg_14" width="39.70487" height="40.45005" viewBox="0 0 39.70486727354909 40.45004920866263">
                        <svg id="svg_12" data-fill-palette-color="accent" class="icon-icon-0" width="39.70487" height="40.45005" xml:space="preserve" enable-background="new 0 0 100 100" viewBox="5.829000473022461 5 88.34199523925781 90" y="0" x="0" version="1.1" xmlns:xlink="http://www.w3.org/1999/xlink" xmlns="http://www.w3.org/2000/svg">
       <g id="svg_11" data-fill-palette-color="accent" fill="#ff4136">
        <path id="svg_10" data-fill-palette-color="accent" fill="#ff4136" d="m94.171,18.84c0,-7.631 -6.208,-13.84 -13.84,-13.84c-4.943,0 -9.276,2.612 -11.724,6.521c-2.769,-1.706 -5.735,-3.021 -8.872,-3.907l-0.087,-0.021c-6.221,-1.78 -13.044,-1.786 -19.369,0.021c-3.154,0.89 -6.124,2.205 -8.885,3.908c-2.449,-3.909 -6.783,-6.522 -11.725,-6.522c-7.631,0 -13.84,6.208 -13.84,13.84c0,6.266 4.188,11.565 9.91,13.263c-0.91,3.166 -1.387,6.459 -1.387,9.803l0,7.356c0,7.708 4.185,14.905 10.922,18.782c3.534,2.04 5.73,5.955 5.73,10.217c0,4.864 2.482,9.158 6.244,11.687c0.862,2.911 3.564,5.052 6.745,5.052l12.027,0c3.179,0 5.88,-2.139 6.744,-5.047c3.763,-2.528 6.245,-6.825 6.245,-11.692c0,-4.262 2.195,-8.177 5.729,-10.217c6.737,-3.865 10.923,-11.062 10.923,-18.783l0,-7.356c0,-3.36 -0.477,-6.652 -1.383,-9.807c5.713,-1.703 9.893,-6.999 9.893,-13.258zm-30.807,34.563c2.07,0 3.753,1.684 3.753,3.753c0,2.07 -1.684,3.753 -3.753,3.753s-3.753,-1.684 -3.753,-3.753c0,-2.07 1.683,-3.753 3.753,-3.753zm-26.728,0c2.07,0 3.753,1.684 3.753,3.753c0,2.07 -1.684,3.753 -3.753,3.753c-2.07,0 -3.753,-1.684 -3.753,-3.753c0,-2.07 1.683,-3.753 3.753,-3.753zm-22.935,-40.594c-1.808,1.378 -2.447,3.653 -2.248,5.917c0.065,0.742 -0.518,1.365 -1.246,1.365c-0.691,0 -1.251,-0.56 -1.251,-1.251c0,-5.906 4.806,-10.712 10.712,-10.712c3.424,0 6.469,1.62 8.43,4.129c0.414,0.53 0.332,1.298 -0.189,1.723c-0.008,0.007 -0.016,0.013 -0.025,0.02c-0.543,0.443 -1.327,0.331 -1.759,-0.22c-2.598,-3.312 -7.68,-4.587 -12.424,-0.971zm68.207,36.453c0,6.379 -3.461,12.331 -9.032,15.534c-4.7,2.702 -7.62,7.867 -7.62,13.478c0,2.423 -0.846,4.649 -2.25,6.411c-0.405,-3.492 -3.39,-6.228 -6.986,-6.228l-12.027,0c-3.594,0 -6.577,2.732 -6.985,6.22c-1.405,-1.764 -2.251,-3.991 -2.251,-6.416c0,-5.6 -2.915,-10.76 -7.607,-13.465c-5.579,-3.213 -9.044,-9.165 -9.044,-15.534l0,-7.356c0,-0.485 0.031,-0.966 0.052,-1.448c2.005,2.838 8.436,12.133 9.543,16.148c1.271,4.607 3.903,8.682 8.682,8.682c0.085,0 0.168,-0.01 0.253,-0.013l0,6.432c0,2.318 1.896,4.214 4.214,4.214s4.214,-1.896 4.214,-4.214l0,-15.102l0,-0.857l0,-39.877c0,-1.925 -0.638,-3.711 -1.719,-5.155c2.202,-0.468 4.44,-0.713 6.661,-0.713c2.262,0 4.495,0.244 6.649,0.712c-1.082,1.444 -1.72,3.23 -1.72,5.156l0,39.877l0,0.857l0,15.102c0,2.318 1.896,4.214 4.214,4.214s4.214,-1.896 4.214,-4.214l0,-6.432c0.085,0.002 0.168,0.013 0.253,0.013c4.779,0 7.412,-4.075 8.682,-8.682c1.113,-4.034 7.601,-13.401 9.572,-16.189c0.023,0.495 0.036,0.991 0.036,1.489l0,7.356l0.002,0zm6.638,-30.536c0.2,-2.263 -0.438,-4.537 -2.245,-5.915c-4.743,-3.616 -9.822,-2.345 -12.423,0.964c-0.431,0.548 -1.21,0.661 -1.752,0.223c-0.008,-0.007 -0.017,-0.014 -0.025,-0.02c-0.526,-0.424 -0.611,-1.196 -0.194,-1.728c1.961,-2.505 5.004,-4.122 8.424,-4.122c5.906,0 10.712,4.806 10.712,10.712c0,0.691 -0.56,1.251 -1.251,1.251c-0.728,0 -1.311,-0.623 -1.246,-1.365z"/>
       </g>
      </svg>
                    </svg>
                </svg>
            </svg>
            <rect x="-122" y="-178" id="svg_20" visibility="hidden" fill="none" height="36.18537" width="395.52"/>
        </g>
    </g>
</svg>
